<svg fill="#000000" xmlns="http://www.w3.org/2000/svg" xmlns:xlink="http://www.w3.org/1999/xlink" version="1.1" x="0px" y="0px" viewBox="0 0 100 100" enable-background="new 0 0 100 100" xml:space="preserve"><g><path d="M49.98,94.876l-0.45-0.938c-0.048-0.101-4.874-10.126-7.416-13.91c-3.614-5.376-17.42-23.067-17.559-23.245   c-0.503-0.689-0.97-1.384-1.397-2.077l-0.48-0.714v-0.091c-2.831-4.906-4.326-10.472-4.326-16.105   c0-17.655,14.188-32.019,31.629-32.019S81.61,20.142,81.61,37.797c0,5.635-1.496,11.201-4.326,16.105v0.018l-0.084,0.199   l-0.405,0.605c-0.412,0.668-0.878,1.362-1.375,2.045c-0.149,0.191-13.926,17.838-17.53,23.2c-2.553,3.799-7.408,13.869-7.457,13.97   L49.98,94.876z M23.678,53.688L24,54.166c0.424,0.688,0.876,1.36,1.354,2.016c0.129,0.165,13.957,17.884,17.591,23.29   c2.148,3.198,5.767,10.503,7.037,13.106c1.275-2.61,4.918-9.953,7.077-13.166c3.625-5.392,17.423-23.066,17.562-23.244   c0.473-0.649,0.924-1.321,1.333-1.984l0.399-0.668c2.786-4.78,4.258-10.215,4.258-15.719c0-17.104-13.74-31.019-30.629-31.019   S19.352,20.693,19.352,37.797c0,5.501,1.473,10.937,4.258,15.719L23.678,53.688z M49.981,63.372   c-13.931,0-25.264-11.473-25.264-25.575S36.05,12.222,49.981,12.222c13.932,0,25.266,11.473,25.266,25.575   S63.913,63.372,49.981,63.372z M49.981,13.222c-13.379,0-24.264,11.024-24.264,24.575s10.885,24.575,24.264,24.575   c13.38,0,24.266-11.024,24.266-24.575S63.361,13.222,49.981,13.222z"/></g><g><g><path d="M21.856,40.14c-0.959,0-1.74-0.781-1.74-1.741c0-17.066,13.723-30.95,30.59-30.95c0.959,0,1.74,0.781,1.74,1.74    s-0.781,1.74-1.74,1.74c-14.948,0-27.109,12.323-27.109,27.47C23.596,39.359,22.815,40.14,21.856,40.14z M50.706,7.949    c-16.592,0-30.09,13.66-30.09,30.45c0,0.684,0.556,1.241,1.24,1.241s1.24-0.557,1.24-1.241c0-15.422,12.386-27.97,27.609-27.97    c0.684,0,1.24-0.556,1.24-1.24S51.39,7.949,50.706,7.949z"/></g></g><g><path d="M72.176,37.333c0,0,0.006,0.565,0.019,1.554c0,0.248-0.001,0.521-0.001,0.819c-0.029,0.298-0.063,0.621-0.098,0.966   c-0.066,0.692-0.126,1.484-0.35,2.311c-0.094,0.418-0.191,0.854-0.291,1.306c-0.145,0.44-0.294,0.895-0.447,1.362   c-0.266,0.954-0.752,1.879-1.188,2.865c-0.553,0.922-1.042,1.936-1.753,2.823c-0.635,0.943-1.428,1.782-2.192,2.644   c-0.851,0.777-1.669,1.594-2.606,2.239c-0.877,0.723-1.877,1.237-2.795,1.799c-0.482,0.239-0.964,0.463-1.437,0.676   c-0.236,0.105-0.47,0.21-0.7,0.313c-0.24,0.081-0.478,0.161-0.711,0.24c-0.467,0.157-0.92,0.31-1.359,0.458   c-0.447,0.117-0.887,0.208-1.304,0.306c-0.42,0.085-0.813,0.211-1.202,0.25c-0.388,0.041-0.756,0.079-1.102,0.115   c-0.344,0.036-0.666,0.07-0.965,0.101c-0.3,0.002-0.575,0.003-0.824,0.005c-0.99-0.011-1.556-0.018-1.556-0.018   s0.562-0.064,1.543-0.177c0.244-0.025,0.515-0.054,0.809-0.085c0.29-0.06,0.604-0.125,0.938-0.194   c0.67-0.133,1.422-0.281,2.219-0.542c0.4-0.12,0.816-0.244,1.248-0.373c0.416-0.169,0.848-0.345,1.289-0.525   c0.221-0.09,0.445-0.181,0.672-0.272c0.217-0.114,0.436-0.229,0.658-0.345c0.443-0.23,0.896-0.464,1.356-0.703   c0.872-0.565,1.799-1.103,2.64-1.798c0.893-0.625,1.666-1.421,2.475-2.169c0.74-0.819,1.512-1.614,2.128-2.514   c0.687-0.847,1.199-1.792,1.757-2.667c0.435-0.94,0.975-1.8,1.283-2.706c0.176-0.444,0.348-0.876,0.514-1.295   c0.125-0.433,0.244-0.851,0.359-1.252c0.258-0.8,0.393-1.55,0.527-2.219c0.068-0.335,0.132-0.648,0.191-0.938   c0.029-0.296,0.057-0.569,0.081-0.814C72.112,37.895,72.176,37.333,72.176,37.333z"/></g><path d="M59.429,26.813H48.937c-0.414,0-0.75,0.336-0.75,0.75v1.031c0,0.414,0.336,0.75,0.75,0.75h10.492  c0.414,0,0.75-0.336,0.75-0.75v-1.031C60.179,27.15,59.842,26.813,59.429,26.813z M59.679,28.594c0,0.138-0.112,0.25-0.25,0.25  H48.937c-0.138,0-0.25-0.112-0.25-0.25v-1.031c0-0.138,0.112-0.25,0.25-0.25h10.492c0.138,0,0.25,0.112,0.25,0.25V28.594z"/><path d="M46.17,40.125c-0.844,0-1.531,0.687-1.531,1.531s0.687,1.531,1.531,1.531s1.531-0.687,1.531-1.531  S47.014,40.125,46.17,40.125z M46.17,42.438c-0.431,0-0.781-0.351-0.781-0.781s0.351-0.781,0.781-0.781s0.781,0.351,0.781,0.781  S46.601,42.438,46.17,42.438z"/><path d="M49.007,40.875c-0.603,0-1.094,0.491-1.094,1.094s0.491,1.094,1.094,1.094s1.094-0.491,1.094-1.094  S49.61,40.875,49.007,40.875z M49.007,42.563c-0.327,0-0.594-0.267-0.594-0.594s0.267-0.594,0.594-0.594s0.594,0.267,0.594,0.594  S49.334,42.563,49.007,42.563z"/><path d="M59.077,43.063c0.603,0,1.094-0.491,1.094-1.094s-0.491-1.094-1.094-1.094s-1.094,0.491-1.094,1.094  S58.474,43.063,59.077,43.063z M59.077,41.375c0.327,0,0.594,0.267,0.594,0.594s-0.267,0.594-0.594,0.594s-0.594-0.267-0.594-0.594  S58.75,41.375,59.077,41.375z"/><path d="M61.83,43.188c0.844,0,1.531-0.687,1.531-1.531s-0.687-1.531-1.531-1.531s-1.531,0.687-1.531,1.531  S60.986,43.188,61.83,43.188z M61.83,40.875c0.431,0,0.781,0.351,0.781,0.781s-0.351,0.781-0.781,0.781s-0.781-0.351-0.781-0.781  S61.399,40.875,61.83,40.875z"/><path d="M66.731,30.01h-1.03v-2.234c0-0.795-0.623-1.448-1.406-1.497c-0.49-0.164-2.955-0.841-10.094-0.841  c-7.446,0-9.628,0.63-10.153,0.843c-0.773,0.06-1.384,0.708-1.384,1.496v2.252c-0.068-0.008-0.133-0.019-0.212-0.019h-1.03  c-0.47,0-0.75,0.151-0.75,0.404v3.221c0,0.252,0.28,0.403,0.75,0.403h1.03c0.079,0,0.144-0.01,0.212-0.019V44.59  c-0.001,0.024-0.013,0.045-0.013,0.07v0.32c0,0.025,0.011,0.046,0.013,0.07v0.048c0,0.211,0.046,0.378,0.142,0.511  c0.023,0.033,0.058,0.049,0.086,0.074c0.183,0.248,0.449,0.415,0.759,0.415h0.948c-0.004,0.039-0.023,0.073-0.023,0.114V47.9  c0,0.552,0.448,1,1,1h1c0.553,0,1-0.448,1-1v-1.688c0-0.041-0.019-0.075-0.023-0.114h3.763c0.077,0.226,0.234,0.379,0.43,0.379  h4.872c0.199,0,0.356-0.151,0.432-0.379h3.799c-0.004,0.039-0.023,0.073-0.023,0.114V47.9c0,0.552,0.448,1,1,1h1  c0.553,0,1-0.448,1-1v-1.688c0-0.041-0.019-0.075-0.023-0.114h0.911c0.296,0,0.555-0.15,0.738-0.378  c0.144-0.121,0.25-0.316,0.25-0.622v-0.048c0.001-0.024,0.013-0.045,0.013-0.07v-0.32c0-0.025-0.011-0.046-0.013-0.07V34.038h1.03  c0.47,0,0.75-0.151,0.75-0.403v-3.221C67.481,30.161,67.201,30.01,66.731,30.01z M42.664,33.516  c-0.054,0.011-0.119,0.021-0.212,0.021h-1.03c-0.11,0-0.195-0.012-0.25-0.025v-2.977c0.055-0.013,0.14-0.025,0.25-0.025h1.03  c0.093,0,0.158,0.011,0.212,0.021V33.516z M43.664,29.705c1.17,0.159,4.322,0.487,10.412,0.491v7.754  c-6.78-0.006-9.504-0.494-10.412-0.725V29.705z M64.7,43.542H43.664v-5.8c1.089,0.261,3.915,0.709,10.537,0.709  c6.69,0,9.431-0.422,10.499-0.691L64.7,43.542z M64.7,37.25c-0.837,0.234-3.378,0.695-10.374,0.701v-7.754  c6.414-0.004,9.289-0.31,10.375-0.475L64.7,37.25z M64.701,29.212c-0.993,0.155-3.875,0.484-10.5,0.484  c-6.229,0-9.438-0.348-10.537-0.498v-1.422c0-0.276,0.224-0.5,0.5-0.5l0.128-0.006l0.104-0.051c0.065-0.032,1.681-0.781,9.804-0.781  c7.658,0,9.795,0.795,9.812,0.802l0.188,0.037c0.276,0,0.5,0.224,0.5,0.5V29.212z M66.981,33.512  c-0.055,0.013-0.14,0.025-0.25,0.025h-1.03V30.51h1.03c0.11,0,0.195,0.012,0.25,0.025V33.512z"/><path d="M36.055,27.579c-2.109,0-3.824,1.715-3.824,3.824c0,1.938,1.453,3.526,3.324,3.773v12.948H34.18V48.9h3.75v-0.775h-1.375  V35.177c1.871-0.248,3.324-1.836,3.324-3.773C39.879,29.294,38.164,27.579,36.055,27.579z M36.055,34.228  c-1.557,0-2.824-1.267-2.824-2.824s1.267-2.824,2.824-2.824s2.824,1.267,2.824,2.824S37.612,34.228,36.055,34.228z"/></svg>