<svg width='200' height='200' fill="#000000" xmlns="http://www.w3.org/2000/svg" data-name="Layer 1" viewBox="0 0 100 100" x="0px" y="0px"><title>publictransp_icons</title><path d="M69.35,27.83A19.35,19.35,0,1,0,47.5,47V88.25H43.67v4.83H56.33V88.25H52.5V47A19.36,19.36,0,0,0,69.35,27.83Zm-34.69,0A15.35,15.35,0,1,1,50,43.18,15.36,15.36,0,0,1,34.65,27.83ZM53,31h3.73v1.28H53ZM54.79,36a.64.64,0,0,0,.64.64h2.81a.64.64,0,0,0,.64-.64V27.36h.64a.55.55,0,0,0,.55-.55v-3a.55.55,0,0,0-.55-.55h-.64V21.1a2.8,2.8,0,0,0-2.66-2.91H43.78a2.8,2.8,0,0,0-2.66,2.91v2.17h-.64a.55.55,0,0,0-.55.55v3a.55.55,0,0,0,.55.55h.64V36a.64.64,0,0,0,.64.64h2.81a.64.64,0,0,0,.64-.64V34.7h9.58Zm2.87-10.56v3H50.61V22.19h7.06ZM43.78,19.4H56.22A1.59,1.59,0,0,1,57.66,21H42.34A1.59,1.59,0,0,1,43.78,19.4Zm-1.45,6.08V22.19h7.06v6.33H42.34Zm0,8V29.74H57.66v3.75ZM43.25,31H47v1.28H43.25Z"/></svg>