<?xml version="1.0" encoding="utf-8"?>
<!-- Generator: Adobe Illustrator 21.0.0, SVG Export Plug-In . SVG Version: 6.00 Build 0)  -->
<svg version="1.1" id="Layer_1" xmlns="http://www.w3.org/2000/svg" xmlns:xlink="http://www.w3.org/1999/xlink" x="0px" y="0px"
	 viewBox="0 0 100 100" style="enable-background:new 0 0 100 100;" xml:space="preserve">
<style type="text/css">
	.st0{fill:none;stroke:#000000;stroke-miterlimit:10;}
</style>
<g>
	<path d="M50,48.9c-9.9,0-18-8.2-18-18.2s8.1-18.2,18-18.2c9.9,0,18,8.2,18,18.2S59.9,48.9,50,48.9z M50,13.2
		c-9.5,0-17.3,7.8-17.3,17.5S40.5,48.2,50,48.2c9.5,0,17.3-7.8,17.3-17.5S59.5,13.2,50,13.2z"/>
</g>
<path d="M55.2,26.8H44.8c-0.4,0-0.8,0.3-0.8,0.8v1c0,0.4,0.3,0.8,0.8,0.8h10.5c0.4,0,0.8-0.3,0.8-0.8v-1
	C56,27.1,55.7,26.8,55.2,26.8z M55.5,28.6c0,0.1-0.1,0.2-0.2,0.2H44.8c-0.1,0-0.2-0.1-0.2-0.2v-1c0-0.1,0.1-0.2,0.2-0.2h10.5
	c0.1,0,0.2,0.1,0.2,0.2V28.6z"/>
<path d="M62.7,23.7h-1v-2.2c0-0.8-0.6-1.4-1.4-1.5c-0.5-0.2-3-0.8-10.1-0.8c-7.4,0-9.6,0.6-10.2,0.8c-0.8,0.1-1.4,0.7-1.4,1.5v2.3
	c-0.1,0-0.1,0-0.2,0h-1c-0.5,0-0.8,0.2-0.8,0.4v3.2c0,0.3,0.3,0.4,0.8,0.4h1c0.1,0,0.1,0,0.2,0v10.6c0,0,0,0,0,0.1v0.3
	c0,0,0,0,0,0.1v0c0,0.2,0,0.4,0.1,0.5c0,0,0.1,0,0.1,0.1c0.2,0.2,0.4,0.4,0.8,0.4h0.9c0,0,0,0.1,0,0.1v1.7c0,0.6,0.4,1,1,1h1
	c0.6,0,1-0.4,1-1v-1.7c0,0,0-0.1,0-0.1h3.8c0.1,0.2,0.2,0.4,0.4,0.4h4.9c0.2,0,0.4-0.2,0.4-0.4h3.8c0,0,0,0.1,0,0.1v1.7
	c0,0.6,0.4,1,1,1h1c0.6,0,1-0.4,1-1v-1.7c0,0,0-0.1,0-0.1h0.9c0.3,0,0.6-0.2,0.7-0.4c0.1-0.1,0.2-0.3,0.2-0.6v0c0,0,0,0,0-0.1v-0.3
	c0,0,0,0,0-0.1V27.7h1c0.5,0,0.8-0.2,0.8-0.4v-3.2C63.4,23.8,63.1,23.7,62.7,23.7z M38.6,27.2c-0.1,0-0.1,0-0.2,0h-1
	c-0.1,0-0.2,0-0.2,0v-3c0.1,0,0.1,0,0.2,0h1c0.1,0,0.2,0,0.2,0V27.2z M39.6,23.4c1.2,0.2,4.3,0.5,10.4,0.5v7.8
	c-6.8,0-9.5-0.5-10.4-0.7V23.4z M60.5,38.4l-21-0.1l0-6.9c1.1,0.3,3.9,0.7,10.5,0.7c6.7,0,9.4-0.4,10.5-0.7L60.5,38.4z M60.6,30.9
	c-0.8,0.2-3.4,0.7-10.4,0.7v-7.8c6.4,0,9.3-0.3,10.4-0.5L60.6,30.9z M60.6,22.9c-1,0.2-3.9,0.5-10.5,0.5c-6.2,0-9.4-0.3-10.5-0.5
	v-1.4c0-0.3,0.2-0.5,0.5-0.5l0.1,0l0.1-0.1c0.1,0,1.7-0.8,9.8-0.8c7.7,0,9.8,0.8,9.8,0.8l0.2,0c0.3,0,0.5,0.2,0.5,0.5L60.6,22.9
	L60.6,22.9z M62.9,27.2c-0.1,0-0.1,0-0.2,0h-1v-3h1c0.1,0,0.2,0,0.2,0V27.2z"/>
<line class="st0" x1="50" y1="48.9" x2="50" y2="87.5"/>
</svg>
