<svg fill="#000000" xmlns="http://www.w3.org/2000/svg" data-name="Layer 1" viewBox="0 0 100 100" x="0px" y="0px"><title>publictransp_icons</title><path d="M57.11,11.75H28.72a5.43,5.43,0,0,0-5.43,5.43V45.57A5.43,5.43,0,0,0,28.72,51H57.11a5.43,5.43,0,0,0,5.43-5.43V17.18A5.43,5.43,0,0,0,57.11,11.75Zm1.43,33.82A1.43,1.43,0,0,1,57.11,47H28.72a1.43,1.43,0,0,1-1.43-1.43V17.18a1.43,1.43,0,0,1,1.43-1.43H57.11a1.43,1.43,0,0,1,1.43,1.43ZM76.71,88.25v4.83H64V88.25h4.33v-44H64V41.85h4.33v-21H64V18.48h4.33V11.75h4v76.5Zm-24.28-61h-.64V25a2.8,2.8,0,0,0-2.66-2.91H36.7A2.8,2.8,0,0,0,34,25v2.17H33.4a.55.55,0,0,0-.55.55v3a.55.55,0,0,0,.55.55H34V40a.64.64,0,0,0,.64.64h2.81a.64.64,0,0,0,.64-.64V38.64h9.58V40a.64.64,0,0,0,.64.64h2.81a.64.64,0,0,0,.64-.64V31.3h.64a.55.55,0,0,0,.55-.55v-3A.55.55,0,0,0,52.43,27.21ZM35.25,29.42V26.13h7.06v6.33H35.25Zm0,8V33.68H50.58v3.75Zm8.27-5V26.13h7.06v6.33ZM36.7,23.34H49.13a1.59,1.59,0,0,1,1.44,1.58H35.26A1.59,1.59,0,0,1,36.7,23.34Zm-.53,11.58H39.9V36.2H36.17Zm9.74,0h3.73V36.2H45.91Z"/></svg>