<svg fill="#000000" xmlns:dc="http://purl.org/dc/elements/1.1/" xmlns:cc="http://creativecommons.org/ns#" xmlns:rdf="http://www.w3.org/1999/02/22-rdf-syntax-ns#" xmlns:svg="http://www.w3.org/2000/svg" xmlns="http://www.w3.org/2000/svg" xmlns:sodipodi="http://sodipodi.sourceforge.net/DTD/sodipodi-0.dtd" xmlns:inkscape="http://www.inkscape.org/namespaces/inkscape" viewBox="0 0 100 100" version="1.1" x="0px" y="0px"><g transform="translate(0,-952.36216)"><path style="opacity:1;fill:#000000;fill-opacity:1;stroke:none;stroke-width:10;stroke-linecap:round;stroke-linejoin:round;stroke-miterlimit:4;stroke-dasharray:none;stroke-dashoffset:0;stroke-opacity:1" d="m 49.978977,957.36217 -25.142559,13.00245 0.0207,25.9723 25.397484,51.02528 24.908904,-51.05789 -0.02099,-25.9723 -25.163538,-12.96984 z m 0.0207,3.96408 21.417241,11.05742 0,22.11456 -21.417241,11.05737 -21.416675,-11.05737 0,-22.11456 21.416675,-11.05742 z"/><path d="m 39.531168,970.35817 c 0,0 0.05134,12.59155 0.05134,18.155 l 20.886107,0 -0.03885,-18.06994 -20.898593,-0.0851 z m 6.943892,1.07559 7.101278,0 0,1.04412 -7.101278,0 0,-1.04412 z m -4.727187,2.10781 7.202795,0 0,7.78696 -7.202795,0 0,-7.78696 z m 9.301242,0 7.202795,0 0,7.78696 -7.202795,0 0,-7.78696 z m -4.574055,10.01018 7.101278,0 0,0.52206 -7.101278,0 0,-0.52206 z m 0,1.34131 7.101278,0 0,0.52206 -7.101278,0 0,-0.52206 z m -6.892553,4.14217 0,2.24052 c 0,1.15711 0.931424,2.08853 2.088517,2.08853 l 16.709059,0 c 1.157093,0 2.088531,-0.93142 2.088531,-2.08853 l 0,-2.24052 -20.886107,0 z m 3.454219,0.94005 0.885877,1.01945 -0.607984,1.02256 -1.494151,0.003 -0.886168,-1.01916 0.608274,-1.02258 1.494152,-0.003 z m 13.926621,0 1.494152,0.003 0.607983,1.02257 -0.885892,1.01917 -1.494151,-0.003 -0.60826,-1.02256 0.886168,-1.01945 z" style="opacity:1;fill:#000000;fill-opacity:1;stroke:none;stroke-width:20;stroke-linecap:round;stroke-linejoin:round;stroke-miterlimit:4;stroke-dasharray:none;stroke-dashoffset:0;stroke-opacity:1"/><path d="m 56.503385,992.52003 0.725849,0 c 0.361959,0 0.653356,0.17555 0.653356,0.39359 l 0,3.21631 c 0,0.21805 -0.291397,0.3936 -0.653356,0.3936 l -0.725849,0 c -0.361959,0 -0.653355,-0.17555 -0.653355,-0.3936 l 0,-3.21631 c 0,-0.21804 0.291396,-0.39359 0.653355,-0.39359 z" style="opacity:1;fill:#000000;fill-opacity:1;stroke:none;stroke-width:20;stroke-linecap:round;stroke-linejoin:round;stroke-miterlimit:4;stroke-dasharray:none;stroke-dashoffset:0;stroke-opacity:1"/><path d="m 42.82212,992.52003 0.725849,0 c 0.361959,0 0.653356,0.17555 0.653356,0.39359 l 0,3.21631 c 0,0.21805 -0.291397,0.3936 -0.653356,0.3936 l -0.725849,0 c -0.361959,0 -0.653356,-0.17555 -0.653356,-0.3936 l 0,-3.21631 c 0,-0.21804 0.291397,-0.39359 0.653356,-0.39359 z" style="opacity:1;fill:#000000;fill-opacity:1;stroke:none;stroke-width:20;stroke-linecap:round;stroke-linejoin:round;stroke-miterlimit:4;stroke-dasharray:none;stroke-dashoffset:0;stroke-opacity:1"/></g></svg>