<svg fill="#000000" xmlns="http://www.w3.org/2000/svg" xmlns:xlink="http://www.w3.org/1999/xlink" viewBox="0 0 100 100" version="1.1" x="0px" y="0px"><title>Map Pin 1.2</title><desc>Created with Sketch.</desc><g stroke="none" stroke-width="1" fill="none" fill-rule="evenodd"><g fill="#000000"><path d="M50,38 C53.3137085,38 56,35.3137085 56,32 C56,28.6862915 53.3137085,26 50,26 C46.6862915,26 44,28.6862915 44,32 C44,35.3137085 46.6862915,38 50,38 Z M49.0051647,38.9298479 C45.610353,38.4468421 43,35.5282613 43,32 C43,28.1340068 46.1340068,25 50,25 C53.8659932,25 57,28.1340068 57,32 C57,35.5216231 54.3994603,38.4358575 51.0139886,38.9270958 C50.8445494,38.9516817 50.9976065,38.9294176 50.9976065,38.9294176 C50.722786,38.9586889 50.5,39.2092578 50.5,39.4845754 L50.5,74.5049354 C50.5,74.778352 50.2680664,75 50,75 C49.7238576,75 49.5,74.782713 49.5,74.5049354 L49.5,39.4845754 C49.5,39.2072415 49.2742073,38.9608729 49.0051647,38.9298479 C49.0051647,38.9298479 49.1683645,38.9530676 49.0051647,38.9298479 Z"/></g></g></svg>