<svg fill="#000000" xmlns:dc="http://purl.org/dc/elements/1.1/" xmlns:cc="http://creativecommons.org/ns#" xmlns:rdf="http://www.w3.org/1999/02/22-rdf-syntax-ns#" xmlns:svg="http://www.w3.org/2000/svg" xmlns="http://www.w3.org/2000/svg" xmlns:sodipodi="http://sodipodi.sourceforge.net/DTD/sodipodi-0.dtd" xmlns:inkscape="http://www.inkscape.org/namespaces/inkscape" version="1.1" x="0px" y="0px" viewBox="0 0 100 100"><g transform="translate(0,-952.36218)"><path style="font-size:medium;font-style:normal;font-variant:normal;font-weight:normal;font-stretch:normal;text-indent:0;text-align:start;text-decoration:none;line-height:normal;letter-spacing:normal;word-spacing:normal;text-transform:none;direction:ltr;block-progression:tb;writing-mode:lr-tb;text-anchor:start;baseline-shift:baseline;opacity:1;color:#000000;fill:#000000;fill-opacity:1;stroke:none;stroke-width:2;marker:none;visibility:visible;display:inline;overflow:visible;enable-background:accumulate;font-family:Sans;-inkscape-font-specification:Sans" d="M 50 7 C 44.488996 7 40 11.489 40 17 C 40 22.51101 44.488997 27 50 27 C 55.511002 27 60 22.51101 60 17 C 60 11.489 55.511003 7 50 7 z M 50 9 C 54.430123 9 58 12.56988 58 17 C 58 21.43013 54.430124 25 50 25 C 45.569875 25 42 21.43013 42 17 C 42 12.56988 45.569876 9 50 9 z M 50 33 C 41.694005 33 35 39.87464 35 48.34375 L 35 68 A 1.0001 1.0001 0 0 0 36 69 L 42 69 L 42 84.84375 C 42 89.34035 45.574698 93 50 93 C 54.425301 93 58 89.34035 58 84.84375 L 58 69 L 64 69 A 1.0001 1.0001 0 0 0 65 68 L 65 48.34375 C 65 39.87464 58.305976 33 50 33 z M 50 35 C 57.206004 35 63 40.92248 63 48.34375 L 63 67 L 57 67 A 1.0001 1.0001 0 0 0 56 68 L 56 84.84375 C 56 88.29245 53.330699 91 50 91 C 46.6693 91 44 88.29245 44 84.84375 L 44 68 A 1.0001 1.0001 0 0 0 43 67 L 37 67 L 37 48.34375 C 37 40.92248 42.793975 35 50 35 z " transform="translate(0,952.36218)"/></g></svg>