<svg fill="#000000" xmlns:dc="http://purl.org/dc/elements/1.1/" xmlns:cc="http://creativecommons.org/ns#" xmlns:rdf="http://www.w3.org/1999/02/22-rdf-syntax-ns#" xmlns:svg="http://www.w3.org/2000/svg" xmlns="http://www.w3.org/2000/svg" xmlns:sodipodi="http://sodipodi.sourceforge.net/DTD/sodipodi-0.dtd" xmlns:inkscape="http://www.inkscape.org/namespaces/inkscape" version="1.1" x="0px" y="0px" viewBox="0 0 100 100"><g transform="translate(0,-952.36218)"><path style="text-indent:0;text-transform:none;direction:ltr;block-progression:tb;baseline-shift:baseline;color:#000000;enable-background:accumulate;" d="m 60.4356,1025.155 a 2.0000048,2.0000048 0 0 0 -0.2687,3.9762 c 4.1193,0.6965 7.5665,1.8179 9.8181,3.0756 2.2515,1.2577 3.0153,2.4675 3.0153,3.2144 0,0.791 -0.348,1.4914 -1.4141,2.3628 -1.0661,0.8715 -2.8134,1.7401 -5.0043,2.4366 -4.3819,1.3929 -10.4908,2.1409 -16.5819,2.1409 -6.0912,0 -12.2,-0.748 -16.5819,-2.1409 -2.1909,-0.6965 -3.9383,-1.5651 -5.0044,-2.4366 -1.0661,-0.8714 -1.414,-1.5718 -1.414,-2.3628 0,-0.7474 0.7488,-1.9422 2.965,-3.1919 2.2161,-1.2496 5.6151,-2.368 9.6846,-3.069 a 2.0000048,2.0000048 0 1 0 -0.679,-3.9416 c -4.3905,0.7563 -8.1465,1.9343 -10.9703,3.5266 -2.8239,1.5922 -5,3.7849 -5,6.6759 0,2.1891 1.2145,4.0961 2.8828,5.4597 1.6683,1.3636 3.8271,2.3576 6.3237,3.1512 4.9933,1.5873 11.3845,2.3291 17.7935,2.3291 6.4089,0 12.8002,-0.7418 17.7934,-2.3291 2.4966,-0.7936 4.6558,-1.7876 6.3241,-3.1512 1.6682,-1.3636 2.8825,-3.2706 2.8825,-5.4597 0,-2.9116 -2.2062,-5.1095 -5.0647,-6.7062 -2.8585,-1.5968 -6.6613,-2.7767 -11.1019,-3.5275 a 2.0000048,2.0000048 0 0 0 -0.3978,-0.033 z" fill="#000000" fill-opacity="1" fill-rule="evenodd" stroke="none" marker="none" visibility="visible" display="inline" overflow="visible"/><path style="text-indent:0;text-transform:none;direction:ltr;block-progression:tb;baseline-shift:baseline;color:#000000;enable-background:accumulate;" d="m 49.9881,958.36314 c -4.968,0 -9.0312,4.08586 -9.0312,9.0625 0,4.97663 4.0632,9.0625 9.0312,9.0625 4.9679,0 9.0312,-4.08587 9.0312,-9.0625 0,-4.97664 -4.0633,-9.0625 -9.0312,-9.0625 z m 0,4 c 2.7921,0 5.0312,2.23964 5.0312,5.0625 0,2.82286 -2.2391,5.0625 -5.0312,5.0625 -2.7923,0 -5.0312,-2.23964 -5.0312,-5.0625 0,-2.82286 2.2389,-5.0625 5.0312,-5.0625 z m -3.75,15.90625 c -6.1852,0 -11.25,5.11253 -11.25,11.31253 l 0,20.12488 c 0.01,1.658 0.814,2.375 2.25,2.375 l 5.5938,0 0,22.3438 c 0,1.0472 0.9528,2 2,2 l 10.3437,0 c 1.0472,0 2,-0.9528 2,-2 l 0,-22.3438 5.4687,0 c 1.5847,0.058 2.3438,-0.9606 2.3438,-2.4062 l 0,-20.09368 c 0,-6.2001 -5.0649,-11.31253 -11.25,-11.31253 z m 0,4.00003 7.5,0 c 3.9948,0 7.25,3.2807 7.25,7.3125 l 0,18.49988 -22,0 0,-18.49988 c 0,-4.0318 3.2551,-7.3125 7.25,-7.3125 z m 0.5938,29.81238 6.3437,0 0,20.3438 -6.3437,0 z" fill="#000000" fill-opacity="1" fill-rule="evenodd" stroke="none" marker="none" visibility="visible" display="inline" overflow="visible"/></g></svg>