<?xml version="1.0" encoding="utf-8"?>
<!-- Generator: Adobe Illustrator 21.0.0, SVG Export Plug-In . SVG Version: 6.00 Build 0)  -->
<svg version="1.1" id="Layer_1" xmlns="http://www.w3.org/2000/svg" xmlns:xlink="http://www.w3.org/1999/xlink" x="0px" y="0px"
	 viewBox="0 0 100 100" style="enable-background:new 0 0 100 100;" xml:space="preserve">
<style type="text/css">
	.st0{fill:none;stroke:#000000;stroke-miterlimit:10;}
</style>
<g>
	<path d="M50,48.9c-9.9,0-18-8.2-18-18.2s8.1-18.2,18-18.2c9.9,0,18,8.2,18,18.2S59.9,48.9,50,48.9z M50,13.2
		c-9.5,0-17.3,7.8-17.3,17.5S40.5,48.2,50,48.2c9.5,0,17.3-7.8,17.3-17.5S59.5,13.2,50,13.2z"/>
</g>
<line class="st0" x1="50" y1="48.9" x2="50" y2="87.5"/>
<g transform="translate(0,-952.36218)">
	<path d="M50,970c-1.7,0-3,1.4-3,3c0,1.7,1.4,3,3,3s3-1.4,3-3C53,971.3,51.7,970,50,970z M50,970.6c1.3,0,2.4,1.1,2.4,2.4
		c0,1.3-1.1,2.4-2.4,2.4s-2.4-1.1-2.4-2.4C47.6,971.6,48.7,970.6,50,970.6z M50,977.8c-2.5,0-4.5,2.1-4.5,4.6v5.9
		c0,0.2,0.1,0.3,0.3,0.3h1.8v4.8c0,1.4,1.1,2.5,2.4,2.5s2.4-1.1,2.4-2.5v-4.8h1.8c0.2,0,0.3-0.1,0.3-0.3v-5.9
		C54.5,979.9,52.5,977.8,50,977.8z M50,978.4c2.2,0,3.9,1.8,3.9,4v5.6h-1.8c-0.2,0-0.3,0.1-0.3,0.3v5.1c0,1-0.8,1.9-1.8,1.9
		s-1.8-0.8-1.8-1.9v-5.1c0-0.2-0.1-0.3-0.3-0.3h-1.8v-5.6C46.1,980.2,47.8,978.4,50,978.4z"/>
</g>
</svg>
